<mxfile host="app.diagrams.net" modified="2024-03-18T13:19:43.279Z" agent="Mozilla/5.0 (Windows NT 10.0; Win64; x64) AppleWebKit/537.36 (KHTML, like Gecko) Chrome/122.0.0.0 Safari/537.36" etag="huQUGPPHSZe_F3Dxz6jC" version="23.1.6" type="device">
  <diagram name="Сторінка-1" id="j8vvACo7vPvhIkPd4tXM">
    <mxGraphModel dx="1271" dy="600" grid="1" gridSize="10" guides="1" tooltips="1" connect="1" arrows="1" fold="1" page="1" pageScale="1" pageWidth="827" pageHeight="1169" math="0" shadow="0">
      <root>
        <mxCell id="0" />
        <mxCell id="1" parent="0" />
        <mxCell id="Koxx-xxRuunbNtEebqQQ-1" value="Task2" style="text;html=1;align=center;verticalAlign=middle;whiteSpace=wrap;rounded=0;" vertex="1" parent="1">
          <mxGeometry x="450" y="20" width="60" height="30" as="geometry" />
        </mxCell>
        <mxCell id="Koxx-xxRuunbNtEebqQQ-2" value="TechDeviceFactory" style="swimlane;fontStyle=1;align=center;verticalAlign=top;childLayout=stackLayout;horizontal=1;startSize=26;horizontalStack=0;resizeParent=1;resizeParentMax=0;resizeLast=0;collapsible=1;marginBottom=0;whiteSpace=wrap;html=1;" vertex="1" parent="1">
          <mxGeometry x="360" y="60" width="220" height="138" as="geometry">
            <mxRectangle x="130" y="80" width="150" height="30" as="alternateBounds" />
          </mxGeometry>
        </mxCell>
        <mxCell id="Koxx-xxRuunbNtEebqQQ-4" value="" style="line;strokeWidth=1;fillColor=none;align=left;verticalAlign=middle;spacingTop=-1;spacingLeft=3;spacingRight=3;rotatable=0;labelPosition=right;points=[];portConstraint=eastwest;strokeColor=inherit;" vertex="1" parent="Koxx-xxRuunbNtEebqQQ-2">
          <mxGeometry y="26" width="220" height="8" as="geometry" />
        </mxCell>
        <mxCell id="Koxx-xxRuunbNtEebqQQ-5" value="+ CreateLaptop() : Laptop" style="text;strokeColor=none;fillColor=none;align=left;verticalAlign=top;spacingLeft=4;spacingRight=4;overflow=hidden;rotatable=0;points=[[0,0.5],[1,0.5]];portConstraint=eastwest;whiteSpace=wrap;html=1;" vertex="1" parent="Koxx-xxRuunbNtEebqQQ-2">
          <mxGeometry y="34" width="220" height="26" as="geometry" />
        </mxCell>
        <mxCell id="Koxx-xxRuunbNtEebqQQ-6" value="+ CreateNetbook() : Netbook" style="text;strokeColor=none;fillColor=none;align=left;verticalAlign=top;spacingLeft=4;spacingRight=4;overflow=hidden;rotatable=0;points=[[0,0.5],[1,0.5]];portConstraint=eastwest;whiteSpace=wrap;html=1;" vertex="1" parent="Koxx-xxRuunbNtEebqQQ-2">
          <mxGeometry y="60" width="220" height="26" as="geometry" />
        </mxCell>
        <mxCell id="Koxx-xxRuunbNtEebqQQ-7" value="+ CreateEBook() : EBook&lt;div&gt;&lt;br/&gt;&lt;/div&gt;" style="text;strokeColor=none;fillColor=none;align=left;verticalAlign=top;spacingLeft=4;spacingRight=4;overflow=hidden;rotatable=0;points=[[0,0.5],[1,0.5]];portConstraint=eastwest;whiteSpace=wrap;html=1;" vertex="1" parent="Koxx-xxRuunbNtEebqQQ-2">
          <mxGeometry y="86" width="220" height="26" as="geometry" />
        </mxCell>
        <mxCell id="Koxx-xxRuunbNtEebqQQ-8" value="+ CreateSmartphone() : Smartphone&lt;div&gt;&lt;br&gt;&lt;/div&gt;" style="text;strokeColor=none;fillColor=none;align=left;verticalAlign=top;spacingLeft=4;spacingRight=4;overflow=hidden;rotatable=0;points=[[0,0.5],[1,0.5]];portConstraint=eastwest;whiteSpace=wrap;html=1;" vertex="1" parent="Koxx-xxRuunbNtEebqQQ-2">
          <mxGeometry y="112" width="220" height="26" as="geometry" />
        </mxCell>
        <mxCell id="Koxx-xxRuunbNtEebqQQ-35" style="edgeStyle=orthogonalEdgeStyle;rounded=0;orthogonalLoop=1;jettySize=auto;html=1;exitX=0.5;exitY=0;exitDx=0;exitDy=0;entryX=1.009;entryY=0.077;entryDx=0;entryDy=0;entryPerimeter=0;" edge="1" parent="1" source="Koxx-xxRuunbNtEebqQQ-10" target="Koxx-xxRuunbNtEebqQQ-5">
          <mxGeometry relative="1" as="geometry" />
        </mxCell>
        <mxCell id="Koxx-xxRuunbNtEebqQQ-10" value="Laptop" style="swimlane;fontStyle=1;align=center;verticalAlign=top;childLayout=stackLayout;horizontal=1;startSize=26;horizontalStack=0;resizeParent=1;resizeParentMax=0;resizeLast=0;collapsible=1;marginBottom=0;whiteSpace=wrap;html=1;" vertex="1" parent="1">
          <mxGeometry x="671" y="270" width="160" height="112" as="geometry" />
        </mxCell>
        <mxCell id="Koxx-xxRuunbNtEebqQQ-14" value="+ Model: string" style="text;strokeColor=none;fillColor=none;align=left;verticalAlign=top;spacingLeft=4;spacingRight=4;overflow=hidden;rotatable=0;points=[[0,0.5],[1,0.5]];portConstraint=eastwest;whiteSpace=wrap;html=1;" vertex="1" parent="Koxx-xxRuunbNtEebqQQ-10">
          <mxGeometry y="26" width="160" height="26" as="geometry" />
        </mxCell>
        <mxCell id="Koxx-xxRuunbNtEebqQQ-11" value="+ Processor: string" style="text;strokeColor=none;fillColor=none;align=left;verticalAlign=top;spacingLeft=4;spacingRight=4;overflow=hidden;rotatable=0;points=[[0,0.5],[1,0.5]];portConstraint=eastwest;whiteSpace=wrap;html=1;" vertex="1" parent="Koxx-xxRuunbNtEebqQQ-10">
          <mxGeometry y="52" width="160" height="26" as="geometry" />
        </mxCell>
        <mxCell id="Koxx-xxRuunbNtEebqQQ-12" value="" style="line;strokeWidth=1;fillColor=none;align=left;verticalAlign=middle;spacingTop=-1;spacingLeft=3;spacingRight=3;rotatable=0;labelPosition=right;points=[];portConstraint=eastwest;strokeColor=inherit;" vertex="1" parent="Koxx-xxRuunbNtEebqQQ-10">
          <mxGeometry y="78" width="160" height="8" as="geometry" />
        </mxCell>
        <mxCell id="Koxx-xxRuunbNtEebqQQ-13" value="+ DisplayInfo(): void" style="text;strokeColor=none;fillColor=none;align=left;verticalAlign=top;spacingLeft=4;spacingRight=4;overflow=hidden;rotatable=0;points=[[0,0.5],[1,0.5]];portConstraint=eastwest;whiteSpace=wrap;html=1;" vertex="1" parent="Koxx-xxRuunbNtEebqQQ-10">
          <mxGeometry y="86" width="160" height="26" as="geometry" />
        </mxCell>
        <mxCell id="Koxx-xxRuunbNtEebqQQ-16" value="EBook" style="swimlane;fontStyle=1;align=center;verticalAlign=top;childLayout=stackLayout;horizontal=1;startSize=26;horizontalStack=0;resizeParent=1;resizeParentMax=0;resizeLast=0;collapsible=1;marginBottom=0;whiteSpace=wrap;html=1;" vertex="1" parent="1">
          <mxGeometry x="490" y="270" width="160" height="112" as="geometry" />
        </mxCell>
        <mxCell id="Koxx-xxRuunbNtEebqQQ-17" value="+ Title: string" style="text;strokeColor=none;fillColor=none;align=left;verticalAlign=top;spacingLeft=4;spacingRight=4;overflow=hidden;rotatable=0;points=[[0,0.5],[1,0.5]];portConstraint=eastwest;whiteSpace=wrap;html=1;" vertex="1" parent="Koxx-xxRuunbNtEebqQQ-16">
          <mxGeometry y="26" width="160" height="26" as="geometry" />
        </mxCell>
        <mxCell id="Koxx-xxRuunbNtEebqQQ-18" value="+ Author: string" style="text;strokeColor=none;fillColor=none;align=left;verticalAlign=top;spacingLeft=4;spacingRight=4;overflow=hidden;rotatable=0;points=[[0,0.5],[1,0.5]];portConstraint=eastwest;whiteSpace=wrap;html=1;" vertex="1" parent="Koxx-xxRuunbNtEebqQQ-16">
          <mxGeometry y="52" width="160" height="26" as="geometry" />
        </mxCell>
        <mxCell id="Koxx-xxRuunbNtEebqQQ-19" value="" style="line;strokeWidth=1;fillColor=none;align=left;verticalAlign=middle;spacingTop=-1;spacingLeft=3;spacingRight=3;rotatable=0;labelPosition=right;points=[];portConstraint=eastwest;strokeColor=inherit;" vertex="1" parent="Koxx-xxRuunbNtEebqQQ-16">
          <mxGeometry y="78" width="160" height="8" as="geometry" />
        </mxCell>
        <mxCell id="Koxx-xxRuunbNtEebqQQ-20" value="+ DisplayInfo(): void" style="text;strokeColor=none;fillColor=none;align=left;verticalAlign=top;spacingLeft=4;spacingRight=4;overflow=hidden;rotatable=0;points=[[0,0.5],[1,0.5]];portConstraint=eastwest;whiteSpace=wrap;html=1;" vertex="1" parent="Koxx-xxRuunbNtEebqQQ-16">
          <mxGeometry y="86" width="160" height="26" as="geometry" />
        </mxCell>
        <mxCell id="Koxx-xxRuunbNtEebqQQ-36" style="edgeStyle=orthogonalEdgeStyle;rounded=0;orthogonalLoop=1;jettySize=auto;html=1;exitX=0.5;exitY=0;exitDx=0;exitDy=0;entryX=0;entryY=0.5;entryDx=0;entryDy=0;" edge="1" parent="1" source="Koxx-xxRuunbNtEebqQQ-21" target="Koxx-xxRuunbNtEebqQQ-8">
          <mxGeometry relative="1" as="geometry" />
        </mxCell>
        <mxCell id="Koxx-xxRuunbNtEebqQQ-21" value="Smartphone" style="swimlane;fontStyle=1;align=center;verticalAlign=top;childLayout=stackLayout;horizontal=1;startSize=26;horizontalStack=0;resizeParent=1;resizeParentMax=0;resizeLast=0;collapsible=1;marginBottom=0;whiteSpace=wrap;html=1;" vertex="1" parent="1">
          <mxGeometry x="304" y="250" width="160" height="112" as="geometry" />
        </mxCell>
        <mxCell id="Koxx-xxRuunbNtEebqQQ-22" value="+ Brand: string" style="text;strokeColor=none;fillColor=none;align=left;verticalAlign=top;spacingLeft=4;spacingRight=4;overflow=hidden;rotatable=0;points=[[0,0.5],[1,0.5]];portConstraint=eastwest;whiteSpace=wrap;html=1;" vertex="1" parent="Koxx-xxRuunbNtEebqQQ-21">
          <mxGeometry y="26" width="160" height="26" as="geometry" />
        </mxCell>
        <mxCell id="Koxx-xxRuunbNtEebqQQ-23" value="+ OS: string" style="text;strokeColor=none;fillColor=none;align=left;verticalAlign=top;spacingLeft=4;spacingRight=4;overflow=hidden;rotatable=0;points=[[0,0.5],[1,0.5]];portConstraint=eastwest;whiteSpace=wrap;html=1;" vertex="1" parent="Koxx-xxRuunbNtEebqQQ-21">
          <mxGeometry y="52" width="160" height="26" as="geometry" />
        </mxCell>
        <mxCell id="Koxx-xxRuunbNtEebqQQ-24" value="" style="line;strokeWidth=1;fillColor=none;align=left;verticalAlign=middle;spacingTop=-1;spacingLeft=3;spacingRight=3;rotatable=0;labelPosition=right;points=[];portConstraint=eastwest;strokeColor=inherit;" vertex="1" parent="Koxx-xxRuunbNtEebqQQ-21">
          <mxGeometry y="78" width="160" height="8" as="geometry" />
        </mxCell>
        <mxCell id="Koxx-xxRuunbNtEebqQQ-25" value="+ DisplayInfo(): void" style="text;strokeColor=none;fillColor=none;align=left;verticalAlign=top;spacingLeft=4;spacingRight=4;overflow=hidden;rotatable=0;points=[[0,0.5],[1,0.5]];portConstraint=eastwest;whiteSpace=wrap;html=1;" vertex="1" parent="Koxx-xxRuunbNtEebqQQ-21">
          <mxGeometry y="86" width="160" height="26" as="geometry" />
        </mxCell>
        <mxCell id="Koxx-xxRuunbNtEebqQQ-37" style="edgeStyle=orthogonalEdgeStyle;rounded=0;orthogonalLoop=1;jettySize=auto;html=1;exitX=0.5;exitY=0;exitDx=0;exitDy=0;entryX=0;entryY=0.5;entryDx=0;entryDy=0;" edge="1" parent="1" source="Koxx-xxRuunbNtEebqQQ-26" target="Koxx-xxRuunbNtEebqQQ-6">
          <mxGeometry relative="1" as="geometry" />
        </mxCell>
        <mxCell id="Koxx-xxRuunbNtEebqQQ-26" value="Netbook" style="swimlane;fontStyle=1;align=center;verticalAlign=top;childLayout=stackLayout;horizontal=1;startSize=26;horizontalStack=0;resizeParent=1;resizeParentMax=0;resizeLast=0;collapsible=1;marginBottom=0;whiteSpace=wrap;html=1;" vertex="1" parent="1">
          <mxGeometry x="120" y="270" width="160" height="112" as="geometry" />
        </mxCell>
        <mxCell id="Koxx-xxRuunbNtEebqQQ-27" value="+ Model: string" style="text;strokeColor=none;fillColor=none;align=left;verticalAlign=top;spacingLeft=4;spacingRight=4;overflow=hidden;rotatable=0;points=[[0,0.5],[1,0.5]];portConstraint=eastwest;whiteSpace=wrap;html=1;" vertex="1" parent="Koxx-xxRuunbNtEebqQQ-26">
          <mxGeometry y="26" width="160" height="26" as="geometry" />
        </mxCell>
        <mxCell id="Koxx-xxRuunbNtEebqQQ-28" value="+ BatteryLife: string" style="text;strokeColor=none;fillColor=none;align=left;verticalAlign=top;spacingLeft=4;spacingRight=4;overflow=hidden;rotatable=0;points=[[0,0.5],[1,0.5]];portConstraint=eastwest;whiteSpace=wrap;html=1;" vertex="1" parent="Koxx-xxRuunbNtEebqQQ-26">
          <mxGeometry y="52" width="160" height="26" as="geometry" />
        </mxCell>
        <mxCell id="Koxx-xxRuunbNtEebqQQ-29" value="" style="line;strokeWidth=1;fillColor=none;align=left;verticalAlign=middle;spacingTop=-1;spacingLeft=3;spacingRight=3;rotatable=0;labelPosition=right;points=[];portConstraint=eastwest;strokeColor=inherit;" vertex="1" parent="Koxx-xxRuunbNtEebqQQ-26">
          <mxGeometry y="78" width="160" height="8" as="geometry" />
        </mxCell>
        <mxCell id="Koxx-xxRuunbNtEebqQQ-30" value="+ DisplayInfo(): void" style="text;strokeColor=none;fillColor=none;align=left;verticalAlign=top;spacingLeft=4;spacingRight=4;overflow=hidden;rotatable=0;points=[[0,0.5],[1,0.5]];portConstraint=eastwest;whiteSpace=wrap;html=1;" vertex="1" parent="Koxx-xxRuunbNtEebqQQ-26">
          <mxGeometry y="86" width="160" height="26" as="geometry" />
        </mxCell>
        <mxCell id="Koxx-xxRuunbNtEebqQQ-34" style="edgeStyle=orthogonalEdgeStyle;rounded=0;orthogonalLoop=1;jettySize=auto;html=1;exitX=0.5;exitY=0;exitDx=0;exitDy=0;entryX=1;entryY=0.5;entryDx=0;entryDy=0;" edge="1" parent="1" source="Koxx-xxRuunbNtEebqQQ-16" target="Koxx-xxRuunbNtEebqQQ-7">
          <mxGeometry relative="1" as="geometry">
            <Array as="points">
              <mxPoint x="570" y="250" />
              <mxPoint x="620" y="250" />
              <mxPoint x="620" y="149" />
            </Array>
          </mxGeometry>
        </mxCell>
        <mxCell id="Koxx-xxRuunbNtEebqQQ-48" style="edgeStyle=orthogonalEdgeStyle;rounded=0;orthogonalLoop=1;jettySize=auto;html=1;exitX=0.5;exitY=0;exitDx=0;exitDy=0;entryX=0;entryY=0.5;entryDx=0;entryDy=0;" edge="1" parent="1" source="Koxx-xxRuunbNtEebqQQ-38" target="Koxx-xxRuunbNtEebqQQ-27">
          <mxGeometry relative="1" as="geometry">
            <Array as="points">
              <mxPoint x="100" y="410" />
              <mxPoint x="100" y="309" />
            </Array>
          </mxGeometry>
        </mxCell>
        <mxCell id="Koxx-xxRuunbNtEebqQQ-38" value="AsusNetbook" style="swimlane;fontStyle=1;align=center;verticalAlign=top;childLayout=stackLayout;horizontal=1;startSize=26;horizontalStack=0;resizeParent=1;resizeParentMax=0;resizeLast=0;collapsible=1;marginBottom=0;whiteSpace=wrap;html=1;" vertex="1" parent="1">
          <mxGeometry y="440" width="130" height="112" as="geometry" />
        </mxCell>
        <mxCell id="Koxx-xxRuunbNtEebqQQ-39" value="+ Model: string" style="text;strokeColor=none;fillColor=none;align=left;verticalAlign=top;spacingLeft=4;spacingRight=4;overflow=hidden;rotatable=0;points=[[0,0.5],[1,0.5]];portConstraint=eastwest;whiteSpace=wrap;html=1;" vertex="1" parent="Koxx-xxRuunbNtEebqQQ-38">
          <mxGeometry y="26" width="130" height="26" as="geometry" />
        </mxCell>
        <mxCell id="Koxx-xxRuunbNtEebqQQ-40" value="+ BatteryLife: string" style="text;strokeColor=none;fillColor=none;align=left;verticalAlign=top;spacingLeft=4;spacingRight=4;overflow=hidden;rotatable=0;points=[[0,0.5],[1,0.5]];portConstraint=eastwest;whiteSpace=wrap;html=1;" vertex="1" parent="Koxx-xxRuunbNtEebqQQ-38">
          <mxGeometry y="52" width="130" height="26" as="geometry" />
        </mxCell>
        <mxCell id="Koxx-xxRuunbNtEebqQQ-41" value="" style="line;strokeWidth=1;fillColor=none;align=left;verticalAlign=middle;spacingTop=-1;spacingLeft=3;spacingRight=3;rotatable=0;labelPosition=right;points=[];portConstraint=eastwest;strokeColor=inherit;" vertex="1" parent="Koxx-xxRuunbNtEebqQQ-38">
          <mxGeometry y="78" width="130" height="8" as="geometry" />
        </mxCell>
        <mxCell id="Koxx-xxRuunbNtEebqQQ-42" value="+ DisplayInfo(): void" style="text;strokeColor=none;fillColor=none;align=left;verticalAlign=top;spacingLeft=4;spacingRight=4;overflow=hidden;rotatable=0;points=[[0,0.5],[1,0.5]];portConstraint=eastwest;whiteSpace=wrap;html=1;" vertex="1" parent="Koxx-xxRuunbNtEebqQQ-38">
          <mxGeometry y="86" width="130" height="26" as="geometry" />
        </mxCell>
        <mxCell id="Koxx-xxRuunbNtEebqQQ-43" value="XiaomiNetbook" style="swimlane;fontStyle=1;align=center;verticalAlign=top;childLayout=stackLayout;horizontal=1;startSize=26;horizontalStack=0;resizeParent=1;resizeParentMax=0;resizeLast=0;collapsible=1;marginBottom=0;whiteSpace=wrap;html=1;" vertex="1" parent="1">
          <mxGeometry x="150" y="460" width="130" height="112" as="geometry" />
        </mxCell>
        <mxCell id="Koxx-xxRuunbNtEebqQQ-44" value="+ Model: string" style="text;strokeColor=none;fillColor=none;align=left;verticalAlign=top;spacingLeft=4;spacingRight=4;overflow=hidden;rotatable=0;points=[[0,0.5],[1,0.5]];portConstraint=eastwest;whiteSpace=wrap;html=1;" vertex="1" parent="Koxx-xxRuunbNtEebqQQ-43">
          <mxGeometry y="26" width="130" height="26" as="geometry" />
        </mxCell>
        <mxCell id="Koxx-xxRuunbNtEebqQQ-45" value="+ BatteryLife: string" style="text;strokeColor=none;fillColor=none;align=left;verticalAlign=top;spacingLeft=4;spacingRight=4;overflow=hidden;rotatable=0;points=[[0,0.5],[1,0.5]];portConstraint=eastwest;whiteSpace=wrap;html=1;" vertex="1" parent="Koxx-xxRuunbNtEebqQQ-43">
          <mxGeometry y="52" width="130" height="26" as="geometry" />
        </mxCell>
        <mxCell id="Koxx-xxRuunbNtEebqQQ-46" value="" style="line;strokeWidth=1;fillColor=none;align=left;verticalAlign=middle;spacingTop=-1;spacingLeft=3;spacingRight=3;rotatable=0;labelPosition=right;points=[];portConstraint=eastwest;strokeColor=inherit;" vertex="1" parent="Koxx-xxRuunbNtEebqQQ-43">
          <mxGeometry y="78" width="130" height="8" as="geometry" />
        </mxCell>
        <mxCell id="Koxx-xxRuunbNtEebqQQ-47" value="+ DisplayInfo(): void" style="text;strokeColor=none;fillColor=none;align=left;verticalAlign=top;spacingLeft=4;spacingRight=4;overflow=hidden;rotatable=0;points=[[0,0.5],[1,0.5]];portConstraint=eastwest;whiteSpace=wrap;html=1;" vertex="1" parent="Koxx-xxRuunbNtEebqQQ-43">
          <mxGeometry y="86" width="130" height="26" as="geometry" />
        </mxCell>
        <mxCell id="Koxx-xxRuunbNtEebqQQ-49" style="edgeStyle=orthogonalEdgeStyle;rounded=0;orthogonalLoop=1;jettySize=auto;html=1;exitX=0.5;exitY=0;exitDx=0;exitDy=0;entryX=0.7;entryY=0.936;entryDx=0;entryDy=0;entryPerimeter=0;" edge="1" parent="1" source="Koxx-xxRuunbNtEebqQQ-43" target="Koxx-xxRuunbNtEebqQQ-30">
          <mxGeometry relative="1" as="geometry">
            <Array as="points">
              <mxPoint x="215" y="440" />
              <mxPoint x="232" y="440" />
            </Array>
          </mxGeometry>
        </mxCell>
        <mxCell id="Koxx-xxRuunbNtEebqQQ-55" value="HuaweiSmartphone" style="swimlane;fontStyle=1;align=center;verticalAlign=top;childLayout=stackLayout;horizontal=1;startSize=26;horizontalStack=0;resizeParent=1;resizeParentMax=0;resizeLast=0;collapsible=1;marginBottom=0;whiteSpace=wrap;html=1;" vertex="1" parent="1">
          <mxGeometry x="370" y="410" width="120" height="120" as="geometry" />
        </mxCell>
        <mxCell id="Koxx-xxRuunbNtEebqQQ-77" value="+ Brand: string" style="text;strokeColor=none;fillColor=none;align=left;verticalAlign=top;spacingLeft=4;spacingRight=4;overflow=hidden;rotatable=0;points=[[0,0.5],[1,0.5]];portConstraint=eastwest;whiteSpace=wrap;html=1;" vertex="1" parent="Koxx-xxRuunbNtEebqQQ-55">
          <mxGeometry y="26" width="120" height="24" as="geometry" />
        </mxCell>
        <mxCell id="Koxx-xxRuunbNtEebqQQ-78" value="+ OS: string" style="text;strokeColor=none;fillColor=none;align=left;verticalAlign=top;spacingLeft=4;spacingRight=4;overflow=hidden;rotatable=0;points=[[0,0.5],[1,0.5]];portConstraint=eastwest;whiteSpace=wrap;html=1;" vertex="1" parent="Koxx-xxRuunbNtEebqQQ-55">
          <mxGeometry y="50" width="120" height="20" as="geometry" />
        </mxCell>
        <mxCell id="Koxx-xxRuunbNtEebqQQ-58" value="" style="line;strokeWidth=1;fillColor=none;align=left;verticalAlign=middle;spacingTop=-1;spacingLeft=3;spacingRight=3;rotatable=0;labelPosition=right;points=[];portConstraint=eastwest;strokeColor=inherit;" vertex="1" parent="Koxx-xxRuunbNtEebqQQ-55">
          <mxGeometry y="70" width="120" height="24" as="geometry" />
        </mxCell>
        <mxCell id="Koxx-xxRuunbNtEebqQQ-80" value="+ DisplayInfo(): void" style="text;strokeColor=none;fillColor=none;align=left;verticalAlign=top;spacingLeft=4;spacingRight=4;overflow=hidden;rotatable=0;points=[[0,0.5],[1,0.5]];portConstraint=eastwest;whiteSpace=wrap;html=1;" vertex="1" parent="Koxx-xxRuunbNtEebqQQ-55">
          <mxGeometry y="94" width="120" height="26" as="geometry" />
        </mxCell>
        <mxCell id="Koxx-xxRuunbNtEebqQQ-61" style="edgeStyle=orthogonalEdgeStyle;rounded=0;orthogonalLoop=1;jettySize=auto;html=1;exitX=0.5;exitY=0;exitDx=0;exitDy=0;entryX=0.773;entryY=1.167;entryDx=0;entryDy=0;entryPerimeter=0;" edge="1" parent="1" source="Koxx-xxRuunbNtEebqQQ-55" target="Koxx-xxRuunbNtEebqQQ-25">
          <mxGeometry relative="1" as="geometry">
            <Array as="points">
              <mxPoint x="430" y="420" />
              <mxPoint x="430" y="400" />
              <mxPoint x="428" y="400" />
            </Array>
          </mxGeometry>
        </mxCell>
        <mxCell id="Koxx-xxRuunbNtEebqQQ-72" value="AmazonKindle" style="swimlane;fontStyle=1;align=center;verticalAlign=top;childLayout=stackLayout;horizontal=1;startSize=27;horizontalStack=0;resizeParent=1;resizeParentMax=0;resizeLast=0;collapsible=1;marginBottom=0;whiteSpace=wrap;html=1;" vertex="1" parent="1">
          <mxGeometry x="460" y="552" width="120" height="113" as="geometry" />
        </mxCell>
        <mxCell id="Koxx-xxRuunbNtEebqQQ-73" value="+ Title: string" style="text;strokeColor=none;fillColor=none;align=left;verticalAlign=top;spacingLeft=4;spacingRight=4;overflow=hidden;rotatable=0;points=[[0,0.5],[1,0.5]];portConstraint=eastwest;whiteSpace=wrap;html=1;" vertex="1" parent="Koxx-xxRuunbNtEebqQQ-72">
          <mxGeometry y="27" width="120" height="26" as="geometry" />
        </mxCell>
        <mxCell id="Koxx-xxRuunbNtEebqQQ-74" value="+ Author: string" style="text;strokeColor=none;fillColor=none;align=left;verticalAlign=top;spacingLeft=4;spacingRight=4;overflow=hidden;rotatable=0;points=[[0,0.5],[1,0.5]];portConstraint=eastwest;whiteSpace=wrap;html=1;" vertex="1" parent="Koxx-xxRuunbNtEebqQQ-72">
          <mxGeometry y="53" width="120" height="26" as="geometry" />
        </mxCell>
        <mxCell id="Koxx-xxRuunbNtEebqQQ-75" value="" style="line;strokeWidth=1;fillColor=none;align=left;verticalAlign=middle;spacingTop=-1;spacingLeft=3;spacingRight=3;rotatable=0;labelPosition=right;points=[];portConstraint=eastwest;strokeColor=inherit;" vertex="1" parent="Koxx-xxRuunbNtEebqQQ-72">
          <mxGeometry y="79" width="120" height="8" as="geometry" />
        </mxCell>
        <mxCell id="Koxx-xxRuunbNtEebqQQ-76" value="+ DisplayInfo(): void" style="text;strokeColor=none;fillColor=none;align=left;verticalAlign=top;spacingLeft=4;spacingRight=4;overflow=hidden;rotatable=0;points=[[0,0.5],[1,0.5]];portConstraint=eastwest;whiteSpace=wrap;html=1;" vertex="1" parent="Koxx-xxRuunbNtEebqQQ-72">
          <mxGeometry y="87" width="120" height="26" as="geometry" />
        </mxCell>
        <mxCell id="Koxx-xxRuunbNtEebqQQ-81" value="GooglePixel" style="swimlane;fontStyle=1;align=center;verticalAlign=top;childLayout=stackLayout;horizontal=1;startSize=26;horizontalStack=0;resizeParent=1;resizeParentMax=0;resizeLast=0;collapsible=1;marginBottom=0;whiteSpace=wrap;html=1;" vertex="1" parent="1">
          <mxGeometry x="289" y="552" width="125" height="120" as="geometry" />
        </mxCell>
        <mxCell id="Koxx-xxRuunbNtEebqQQ-82" value="+ Brand: string" style="text;strokeColor=none;fillColor=none;align=left;verticalAlign=top;spacingLeft=4;spacingRight=4;overflow=hidden;rotatable=0;points=[[0,0.5],[1,0.5]];portConstraint=eastwest;whiteSpace=wrap;html=1;" vertex="1" parent="Koxx-xxRuunbNtEebqQQ-81">
          <mxGeometry y="26" width="125" height="24" as="geometry" />
        </mxCell>
        <mxCell id="Koxx-xxRuunbNtEebqQQ-83" value="+ OS: string" style="text;strokeColor=none;fillColor=none;align=left;verticalAlign=top;spacingLeft=4;spacingRight=4;overflow=hidden;rotatable=0;points=[[0,0.5],[1,0.5]];portConstraint=eastwest;whiteSpace=wrap;html=1;" vertex="1" parent="Koxx-xxRuunbNtEebqQQ-81">
          <mxGeometry y="50" width="125" height="20" as="geometry" />
        </mxCell>
        <mxCell id="Koxx-xxRuunbNtEebqQQ-84" value="" style="line;strokeWidth=1;fillColor=none;align=left;verticalAlign=middle;spacingTop=-1;spacingLeft=3;spacingRight=3;rotatable=0;labelPosition=right;points=[];portConstraint=eastwest;strokeColor=inherit;" vertex="1" parent="Koxx-xxRuunbNtEebqQQ-81">
          <mxGeometry y="70" width="125" height="24" as="geometry" />
        </mxCell>
        <mxCell id="Koxx-xxRuunbNtEebqQQ-85" value="+ DisplayInfo(): void" style="text;strokeColor=none;fillColor=none;align=left;verticalAlign=top;spacingLeft=4;spacingRight=4;overflow=hidden;rotatable=0;points=[[0,0.5],[1,0.5]];portConstraint=eastwest;whiteSpace=wrap;html=1;" vertex="1" parent="Koxx-xxRuunbNtEebqQQ-81">
          <mxGeometry y="94" width="125" height="26" as="geometry" />
        </mxCell>
        <mxCell id="Koxx-xxRuunbNtEebqQQ-86" style="edgeStyle=orthogonalEdgeStyle;rounded=0;orthogonalLoop=1;jettySize=auto;html=1;exitX=0.5;exitY=0;exitDx=0;exitDy=0;entryX=0.277;entryY=1.038;entryDx=0;entryDy=0;entryPerimeter=0;" edge="1" parent="1" source="Koxx-xxRuunbNtEebqQQ-81" target="Koxx-xxRuunbNtEebqQQ-25">
          <mxGeometry relative="1" as="geometry" />
        </mxCell>
        <mxCell id="Koxx-xxRuunbNtEebqQQ-87" style="edgeStyle=orthogonalEdgeStyle;rounded=0;orthogonalLoop=1;jettySize=auto;html=1;exitX=0.25;exitY=0;exitDx=0;exitDy=0;entryX=0.119;entryY=1.09;entryDx=0;entryDy=0;entryPerimeter=0;" edge="1" parent="1" source="Koxx-xxRuunbNtEebqQQ-72" target="Koxx-xxRuunbNtEebqQQ-20">
          <mxGeometry relative="1" as="geometry">
            <Array as="points">
              <mxPoint x="530" y="440" />
              <mxPoint x="509" y="440" />
            </Array>
          </mxGeometry>
        </mxCell>
        <mxCell id="Koxx-xxRuunbNtEebqQQ-88" value="SamsungEBook" style="swimlane;fontStyle=1;align=center;verticalAlign=top;childLayout=stackLayout;horizontal=1;startSize=27;horizontalStack=0;resizeParent=1;resizeParentMax=0;resizeLast=0;collapsible=1;marginBottom=0;whiteSpace=wrap;html=1;" vertex="1" parent="1">
          <mxGeometry x="560" y="417" width="120" height="113" as="geometry" />
        </mxCell>
        <mxCell id="Koxx-xxRuunbNtEebqQQ-89" value="+ Title: string" style="text;strokeColor=none;fillColor=none;align=left;verticalAlign=top;spacingLeft=4;spacingRight=4;overflow=hidden;rotatable=0;points=[[0,0.5],[1,0.5]];portConstraint=eastwest;whiteSpace=wrap;html=1;" vertex="1" parent="Koxx-xxRuunbNtEebqQQ-88">
          <mxGeometry y="27" width="120" height="26" as="geometry" />
        </mxCell>
        <mxCell id="Koxx-xxRuunbNtEebqQQ-90" value="+ Author: string" style="text;strokeColor=none;fillColor=none;align=left;verticalAlign=top;spacingLeft=4;spacingRight=4;overflow=hidden;rotatable=0;points=[[0,0.5],[1,0.5]];portConstraint=eastwest;whiteSpace=wrap;html=1;" vertex="1" parent="Koxx-xxRuunbNtEebqQQ-88">
          <mxGeometry y="53" width="120" height="26" as="geometry" />
        </mxCell>
        <mxCell id="Koxx-xxRuunbNtEebqQQ-91" value="" style="line;strokeWidth=1;fillColor=none;align=left;verticalAlign=middle;spacingTop=-1;spacingLeft=3;spacingRight=3;rotatable=0;labelPosition=right;points=[];portConstraint=eastwest;strokeColor=inherit;" vertex="1" parent="Koxx-xxRuunbNtEebqQQ-88">
          <mxGeometry y="79" width="120" height="8" as="geometry" />
        </mxCell>
        <mxCell id="Koxx-xxRuunbNtEebqQQ-92" value="+ DisplayInfo(): void" style="text;strokeColor=none;fillColor=none;align=left;verticalAlign=top;spacingLeft=4;spacingRight=4;overflow=hidden;rotatable=0;points=[[0,0.5],[1,0.5]];portConstraint=eastwest;whiteSpace=wrap;html=1;" vertex="1" parent="Koxx-xxRuunbNtEebqQQ-88">
          <mxGeometry y="87" width="120" height="26" as="geometry" />
        </mxCell>
        <mxCell id="Koxx-xxRuunbNtEebqQQ-94" style="edgeStyle=orthogonalEdgeStyle;rounded=0;orthogonalLoop=1;jettySize=auto;html=1;exitX=0.25;exitY=0;exitDx=0;exitDy=0;entryX=0.573;entryY=1.064;entryDx=0;entryDy=0;entryPerimeter=0;" edge="1" parent="1" source="Koxx-xxRuunbNtEebqQQ-88" target="Koxx-xxRuunbNtEebqQQ-20">
          <mxGeometry relative="1" as="geometry" />
        </mxCell>
        <mxCell id="Koxx-xxRuunbNtEebqQQ-95" value="LenovoLaptop" style="swimlane;fontStyle=1;align=center;verticalAlign=top;childLayout=stackLayout;horizontal=1;startSize=26;horizontalStack=0;resizeParent=1;resizeParentMax=0;resizeLast=0;collapsible=1;marginBottom=0;whiteSpace=wrap;html=1;" vertex="1" parent="1">
          <mxGeometry x="620" y="552" width="160" height="112" as="geometry" />
        </mxCell>
        <mxCell id="Koxx-xxRuunbNtEebqQQ-96" value="+ Model: string" style="text;strokeColor=none;fillColor=none;align=left;verticalAlign=top;spacingLeft=4;spacingRight=4;overflow=hidden;rotatable=0;points=[[0,0.5],[1,0.5]];portConstraint=eastwest;whiteSpace=wrap;html=1;" vertex="1" parent="Koxx-xxRuunbNtEebqQQ-95">
          <mxGeometry y="26" width="160" height="26" as="geometry" />
        </mxCell>
        <mxCell id="Koxx-xxRuunbNtEebqQQ-97" value="+ Processor: string" style="text;strokeColor=none;fillColor=none;align=left;verticalAlign=top;spacingLeft=4;spacingRight=4;overflow=hidden;rotatable=0;points=[[0,0.5],[1,0.5]];portConstraint=eastwest;whiteSpace=wrap;html=1;" vertex="1" parent="Koxx-xxRuunbNtEebqQQ-95">
          <mxGeometry y="52" width="160" height="26" as="geometry" />
        </mxCell>
        <mxCell id="Koxx-xxRuunbNtEebqQQ-98" value="" style="line;strokeWidth=1;fillColor=none;align=left;verticalAlign=middle;spacingTop=-1;spacingLeft=3;spacingRight=3;rotatable=0;labelPosition=right;points=[];portConstraint=eastwest;strokeColor=inherit;" vertex="1" parent="Koxx-xxRuunbNtEebqQQ-95">
          <mxGeometry y="78" width="160" height="8" as="geometry" />
        </mxCell>
        <mxCell id="Koxx-xxRuunbNtEebqQQ-99" value="+ DisplayInfo(): void" style="text;strokeColor=none;fillColor=none;align=left;verticalAlign=top;spacingLeft=4;spacingRight=4;overflow=hidden;rotatable=0;points=[[0,0.5],[1,0.5]];portConstraint=eastwest;whiteSpace=wrap;html=1;" vertex="1" parent="Koxx-xxRuunbNtEebqQQ-95">
          <mxGeometry y="86" width="160" height="26" as="geometry" />
        </mxCell>
        <mxCell id="Koxx-xxRuunbNtEebqQQ-100" value="AppleLaptop" style="swimlane;fontStyle=1;align=center;verticalAlign=top;childLayout=stackLayout;horizontal=1;startSize=26;horizontalStack=0;resizeParent=1;resizeParentMax=0;resizeLast=0;collapsible=1;marginBottom=0;whiteSpace=wrap;html=1;" vertex="1" parent="1">
          <mxGeometry x="780" y="410" width="160" height="112" as="geometry" />
        </mxCell>
        <mxCell id="Koxx-xxRuunbNtEebqQQ-101" value="+ Model: string" style="text;strokeColor=none;fillColor=none;align=left;verticalAlign=top;spacingLeft=4;spacingRight=4;overflow=hidden;rotatable=0;points=[[0,0.5],[1,0.5]];portConstraint=eastwest;whiteSpace=wrap;html=1;" vertex="1" parent="Koxx-xxRuunbNtEebqQQ-100">
          <mxGeometry y="26" width="160" height="26" as="geometry" />
        </mxCell>
        <mxCell id="Koxx-xxRuunbNtEebqQQ-102" value="+ Processor: string" style="text;strokeColor=none;fillColor=none;align=left;verticalAlign=top;spacingLeft=4;spacingRight=4;overflow=hidden;rotatable=0;points=[[0,0.5],[1,0.5]];portConstraint=eastwest;whiteSpace=wrap;html=1;" vertex="1" parent="Koxx-xxRuunbNtEebqQQ-100">
          <mxGeometry y="52" width="160" height="26" as="geometry" />
        </mxCell>
        <mxCell id="Koxx-xxRuunbNtEebqQQ-103" value="" style="line;strokeWidth=1;fillColor=none;align=left;verticalAlign=middle;spacingTop=-1;spacingLeft=3;spacingRight=3;rotatable=0;labelPosition=right;points=[];portConstraint=eastwest;strokeColor=inherit;" vertex="1" parent="Koxx-xxRuunbNtEebqQQ-100">
          <mxGeometry y="78" width="160" height="8" as="geometry" />
        </mxCell>
        <mxCell id="Koxx-xxRuunbNtEebqQQ-104" value="+ DisplayInfo(): void" style="text;strokeColor=none;fillColor=none;align=left;verticalAlign=top;spacingLeft=4;spacingRight=4;overflow=hidden;rotatable=0;points=[[0,0.5],[1,0.5]];portConstraint=eastwest;whiteSpace=wrap;html=1;" vertex="1" parent="Koxx-xxRuunbNtEebqQQ-100">
          <mxGeometry y="86" width="160" height="26" as="geometry" />
        </mxCell>
        <mxCell id="Koxx-xxRuunbNtEebqQQ-105" style="edgeStyle=orthogonalEdgeStyle;rounded=0;orthogonalLoop=1;jettySize=auto;html=1;exitX=0.25;exitY=0;exitDx=0;exitDy=0;entryX=0.921;entryY=1.167;entryDx=0;entryDy=0;entryPerimeter=0;" edge="1" parent="1" source="Koxx-xxRuunbNtEebqQQ-100" target="Koxx-xxRuunbNtEebqQQ-13">
          <mxGeometry relative="1" as="geometry" />
        </mxCell>
        <mxCell id="Koxx-xxRuunbNtEebqQQ-106" style="edgeStyle=orthogonalEdgeStyle;rounded=0;orthogonalLoop=1;jettySize=auto;html=1;exitX=0.75;exitY=0;exitDx=0;exitDy=0;entryX=0.463;entryY=1.192;entryDx=0;entryDy=0;entryPerimeter=0;" edge="1" parent="1" source="Koxx-xxRuunbNtEebqQQ-95" target="Koxx-xxRuunbNtEebqQQ-13">
          <mxGeometry relative="1" as="geometry">
            <Array as="points">
              <mxPoint x="745" y="552" />
            </Array>
          </mxGeometry>
        </mxCell>
      </root>
    </mxGraphModel>
  </diagram>
</mxfile>
